<?xml version="1.0" encoding="utf-8"?>
<!-- Generator: Adobe Illustrator 23.0.4, SVG Export Plug-In . SVG Version: 6.00 Build 0)  -->
<svg version="1.1" id="Layer_1" xmlns="http://www.w3.org/2000/svg" xmlns:xlink="http://www.w3.org/1999/xlink" x="0px" y="0px"
	 viewBox="0 0 322.2 322.2" style="enable-background:new 0 0 322.2 322.2;" xml:space="preserve">
<style type="text/css">
	.st0{fill:#FFFFFF;}
</style>
<polygon class="st0" points="261.3,162.6 243.8,154.1 254,121.9 228.4,132.6 218.2,119 184.2,154.9 261.3,162.7 "/>
<polygon class="st0" points="114.3,119 104.1,132.6 78.5,121.9 88.7,154.1 71.1,162.6 71.2,162.7 148.2,154.9 "/>
<polygon class="st0" points="124.8,209.2 115,224.1 162.3,220.2 158.2,180.2 "/>
<polygon class="st0" points="71.6,163 126.3,205.9 150.2,171 "/>
<polygon class="st0" points="189.5,135.8 205.7,87.7 180.1,94 166.3,67 174.3,146.6 "/>
<polygon class="st0" points="166.2,67 152.3,94 126.8,87.7 143,135.8 158.1,146.6 "/>
<polygon class="st0" points="206.1,205.9 260.8,163 182.2,171 "/>
<polygon class="st0" points="217.4,224.1 207.7,209.2 174.2,180.2 166.2,259.4 181.7,221.2 "/>
<path class="st0" d="M56,114.6c-0.8,0-1.7-0.2-2.5-0.6c-2.7-1.4-3.7-4.7-2.4-7.3c21.5-42.1,64.2-68.3,111.5-68.3
	c37,0,71.8,16.2,95.7,44.5c1.9,2.3,1.6,5.7-0.7,7.7c-2.3,1.9-5.7,1.6-7.7-0.7c-21.8-25.8-53.6-40.6-87.4-40.6
	c-43.2,0-82.2,23.9-101.8,62.4C59.9,113.5,58,114.6,56,114.6"/>
<path class="st0" d="M186.1,308.3c-2.6,0-5-1.9-5.4-4.6c-0.5-3,1.6-5.8,4.6-6.2c31.9-4.9,61.1-21.1,82.3-45.6
	c21.4-24.8,33.2-56.4,33.2-89.2c0-51.5-28.5-98.1-74.4-121.5c-2.7-1.4-3.7-4.7-2.4-7.3c1.4-2.7,4.7-3.7,7.3-2.4
	c49.5,25.3,80.3,75.6,80.3,131.2c0,35.4-12.7,69.6-35.9,96.4c-22.9,26.5-54.5,43.9-88.9,49.2C186.6,308.2,186.4,308.3,186.1,308.3"
	/>
<path class="st0" d="M36.4,240.9c-1.9,0-3.8-1-4.8-2.8c-12.5-22.5-19.1-48-19.1-73.9c0-84,68.3-152.3,152.3-152.3
	c3,0,5.5,2.4,5.5,5.5c0,3-2.4,5.5-5.5,5.5c-78,0-141.4,63.4-141.4,141.4c0,24,6.1,47.7,17.7,68.6c1.5,2.6,0.5,6-2.1,7.4
	C38.2,240.7,37.3,240.9,36.4,240.9"/>
<path class="st0" d="M163.4,286.9c-68.9,0-124.9-56.1-124.9-124.9c0-3,2.4-5.5,5.5-5.5c3,0,5.5,2.4,5.5,5.5c0,62.9,51.2,114,114,114
	c34,0,66-15,87.7-41.2c1.9-2.3,5.4-2.6,7.7-0.7c2.3,1.9,2.6,5.4,0.7,7.7C235.7,270.5,200.7,286.9,163.4,286.9"/>
</svg>
